<svg width="81" height="84" viewBox="0 0 81 84" fill="none" xmlns="http://www.w3.org/2000/svg">
<path d="M48.4055 10.7527L48.4054 10.7527L48.4114 10.761C48.8941 11.4268 49.5784 11.9192 50.3631 12.1652C51.1464 12.4107 51.9878 12.3976 52.763 12.1279C52.7644 12.1275 52.7658 12.127 52.7672 12.1265L62.748 8.74327C63.0647 8.63619 63.4025 8.60649 63.7332 8.65668C64.0637 8.70684 64.3775 8.83547 64.6482 9.03178C64.9189 9.22808 65.1387 9.48629 65.2891 9.78486C65.4394 10.0832 65.5162 10.4131 65.513 10.747C65.513 10.7474 65.513 10.7478 65.513 10.7481L65.3759 21.2919C65.3759 21.2924 65.3759 21.293 65.3759 21.2936C65.3639 22.1249 65.6246 22.9374 66.1184 23.6065C66.6107 24.2736 67.3075 24.7613 68.1024 24.9956L78.1679 28.1576L78.1718 28.1588C78.4913 28.2575 78.7824 28.4317 79.0204 28.6666C79.2585 28.9016 79.4365 29.1904 79.5394 29.5085C79.6423 29.8268 79.6671 30.1651 79.6117 30.4949C79.5564 30.8246 79.4224 31.1362 79.2211 31.4034L79.22 31.4048L72.8912 39.8433L72.8884 39.847C72.397 40.5095 72.1318 41.3125 72.1318 42.1373C72.1318 42.9622 72.3971 43.765 72.8884 44.4275L72.8912 44.4312L79.22 52.8697L79.2204 52.8701C79.4218 53.1383 79.5559 53.451 79.6113 53.7817C79.6667 54.1124 79.6419 54.4516 79.5389 54.7709C79.4359 55.0901 79.2578 55.3798 79.0195 55.6157C78.7812 55.8517 78.4897 56.0271 78.1695 56.1269L78.1679 56.1275L68.1011 59.2898C67.3053 59.5266 66.6084 60.0167 66.1165 60.6857C65.6233 61.3563 65.3633 62.17 65.3759 63.0022L65.376 63.0046L65.513 73.5503L65.5131 73.552C65.5181 73.8864 65.4425 74.2171 65.2928 74.5162C65.143 74.8153 64.9235 75.074 64.6527 75.2703C64.382 75.4666 64.068 75.5948 63.7372 75.6441C63.4064 75.6935 63.0684 75.6625 62.7522 75.5538L62.7486 75.5526L52.7672 72.1692C52.7659 72.1688 52.7645 72.1683 52.7632 72.1679C51.988 71.8981 51.1465 71.885 50.3631 72.1306C49.5784 72.3766 48.8941 72.869 48.4114 73.5347L48.4114 73.5347L48.4055 73.5431L42.3206 82.1484C42.3204 82.1487 42.3202 82.1489 42.32 82.1492C42.1265 82.421 41.8708 82.6427 41.5741 82.7958C41.2773 82.9489 40.948 83.0288 40.6139 83.0288C40.2798 83.0288 39.9506 82.9489 39.6538 82.7958C39.3574 82.6428 39.1018 82.4214 38.9084 82.1499C38.908 82.1494 38.9077 82.1489 38.9073 82.1484L32.8224 73.5431L32.8225 73.543L32.8157 73.5337C32.3312 72.8674 31.6449 72.3748 30.8585 72.1291C30.0735 71.8837 29.2305 71.8974 28.4539 72.1679C28.4525 72.1684 28.4511 72.1689 28.4498 72.1693L18.4789 75.5526L18.4756 75.5538C18.1593 75.6625 17.8215 75.6935 17.4907 75.6441C17.1598 75.5948 16.8457 75.4665 16.5751 75.2703C16.3043 75.074 16.0848 74.8153 15.935 74.5162C15.7853 74.2172 15.7098 73.8866 15.7148 73.552L15.7149 73.5503L15.852 63.0022L15.852 62.9999C15.8607 62.1692 15.5992 61.3582 15.1071 60.6889C14.6161 60.0212 13.922 59.5304 13.1286 59.2904L3.05991 56.1275C2.73968 56.0268 2.44823 55.8512 2.2098 55.6151C1.9713 55.3789 1.79271 55.0891 1.68901 54.7699C1.58532 54.4508 1.55947 54.1116 1.61359 53.7803C1.66761 53.4496 1.79967 53.1367 1.99877 52.8676C1.9992 52.867 1.99962 52.8664 2.00005 52.8659L8.32462 44.4331C8.32474 44.4329 8.32486 44.4328 8.32497 44.4326C8.8236 43.7713 9.09332 42.9656 9.09332 42.1373C9.09332 41.3091 8.82363 40.5033 8.32497 39.8419C8.32486 39.8417 8.32474 39.8416 8.32462 39.8414L1.99932 31.4077C1.99902 31.4073 1.99873 31.4069 1.99843 31.4065C1.79925 31.1382 1.66716 30.8262 1.61315 30.4964C1.55907 30.1661 1.58493 29.8277 1.68857 29.5095C1.79224 29.1912 1.9706 28.9024 2.20874 28.6674C2.44694 28.4323 2.73808 28.2577 3.05764 28.1583L3.05991 28.1576L13.1266 24.9953C13.9203 24.7592 14.6155 24.2711 15.1072 23.6048C15.6005 22.9364 15.8622 22.1251 15.852 21.2942L15.852 21.2936L15.7149 10.7481C15.7149 10.7478 15.7149 10.7474 15.7149 10.747C15.7117 10.4131 15.7885 10.0832 15.9388 9.78486C16.0893 9.48618 16.309 9.228 16.5796 9.03178C16.8503 8.83551 17.1641 8.70685 17.4947 8.65668C17.8253 8.6065 18.163 8.63617 18.4797 8.74323C18.4797 8.74325 18.4797 8.74326 18.4798 8.74327L28.4537 12.1278C29.2304 12.3984 30.0736 12.4119 30.8585 12.1666C31.6448 11.9209 32.3311 11.4285 32.8157 10.762L32.8158 10.7621L32.8224 10.7527L38.9073 2.14733C38.9076 2.14688 38.908 2.14643 38.9083 2.14598C39.1018 1.87429 39.3574 1.65275 39.6538 1.49985C39.9506 1.34668 40.2798 1.26678 40.6139 1.26678C40.948 1.26678 41.2773 1.3467 41.5741 1.49985C41.8708 1.65289 42.1266 1.87472 42.3202 2.14676C42.3203 2.14695 42.3204 2.14714 42.3206 2.14733L48.4055 10.7527Z" stroke="white" stroke-width="1.73962"/>
<path d="M61.025 42.5893C61.025 53.76 51.9693 62.8156 40.7987 62.8156C29.6281 62.8156 20.5724 53.76 20.5724 42.5893C20.5724 31.4186 29.6281 22.363 40.7987 22.363C51.9693 22.363 61.025 31.4186 61.025 42.5893Z" stroke="white" stroke-width="1.73962"/>
</svg>
