<svg width="69" height="52" viewBox="0 0 69 52" fill="none" xmlns="http://www.w3.org/2000/svg">
<path d="M1.15161 21.3154C1.15161 21.3154 -0.76329 40.7588 8.56962 41.8963C14.2792 42.5925 15.7483 38.7846 15.7483 38.7846C15.7483 38.7846 18.86 46.4421 28.1929 39.9814C28.1929 39.9814 36.329 46.6814 42.7896 38.7846C42.7896 38.7846 50.9279 44.5293 56.9097 35.9144C62.5907 27.7343 61.3676 5.31759 49.3512 3.27531C47.801 3.01252 46.2683 2.65537 44.7616 2.20586C41.0767 1.10786 34.0474 -0.20972 27.7142 3.126C18.6206 7.91328 3.7824 -1.89845 1.15161 21.3154Z" stroke="white" stroke-width="1.74294" stroke-miterlimit="10" stroke-linecap="round"/>
<path d="M36.587 42.5552C35.735 46.1786 38.5217 48.4602 38.5217 48.4602C38.5217 48.4602 44.3476 53.2914 57.7519 47.8871C57.7519 47.8871 77.7221 38.0776 60.1367 24.4316" stroke="white" stroke-width="1.74294" stroke-miterlimit="10" stroke-linecap="round"/>
<path d="M15.7493 38.7846C15.7493 38.7846 12.6991 24.605 15.7493 19.5806" stroke="white" stroke-width="1.74294" stroke-miterlimit="10" stroke-linecap="round"/>
<path d="M28.1923 39.9813C28.1923 39.9813 25.858 19.9384 30.5859 17.2461" stroke="white" stroke-width="1.74294" stroke-miterlimit="10" stroke-linecap="round"/>
<path d="M42.7897 38.7843C42.7897 38.7843 40.6969 20.1184 44.8254 15.812" stroke="white" stroke-width="1.74294" stroke-miterlimit="10" stroke-linecap="round"/>
<path d="M52.2126 39.9816C52.2126 39.9816 54.6963 39.6632 56.8506 42.6344" stroke="white" stroke-width="1.74294" stroke-miterlimit="10" stroke-linecap="round"/>
<path d="M32.3147 7.04247C32.3147 7.04247 38.2438 4.53027 42.0078 8.2986" stroke="white" stroke-width="1.74294" stroke-miterlimit="10" stroke-linecap="round"/>
</svg>
