<svg width="197" height="197" viewBox="0 0 197 197" fill="none" xmlns="http://www.w3.org/2000/svg">
<path d="M195 98.5C195 151.796 151.796 195.001 98.5 195.001C45.2044 195.001 2 151.796 2 98.5C2 45.2044 45.2044 2 98.5 2C151.796 2 195 45.2044 195 98.5Z" fill="#B3B3B3" stroke="black" stroke-width="3.80296"/>
<path d="M56.1919 86.0615C56.1919 90.4805 59.7743 94.0629 64.1933 94.0629C68.6133 94.0629 72.1957 90.4805 72.1957 86.0615C72.1957 81.6415 68.6133 78.0591 64.1933 78.0591C59.7743 78.0591 56.1919 81.6415 56.1919 86.0615Z" fill="#090C12"/>
<path d="M127.01 86.0615C127.01 90.4805 130.592 94.0629 135.012 94.0629C139.431 94.0629 143.014 90.4805 143.014 86.0615C143.014 81.6415 139.431 78.0591 135.012 78.0591C130.592 78.0591 127.01 81.6415 127.01 86.0615Z" fill="#090C12"/>
</svg>
