<svg width="56" height="84" viewBox="0 0 56 84" fill="none" xmlns="http://www.w3.org/2000/svg">
<path d="M26.0386 2.88461L26.0643 2.83295L26.0829 2.77835C26.231 2.34468 26.5179 1.96248 26.9079 1.68927C27.2981 1.41583 27.7703 1.26678 28.2574 1.26678C28.7444 1.26678 29.2166 1.41583 29.6068 1.68927C29.9968 1.96248 30.2837 2.34468 30.4318 2.77835L30.4504 2.83295L30.4761 2.88461L53.2946 48.7565C58.8628 64.9992 47.0796 82.3247 29.4183 83.0288H29.4171H29.4148H29.4125H29.4102H29.4079H29.4057H29.4034H29.4011H29.3988H29.3965H29.3942H29.3919H29.3896H29.3873H29.385H29.3828H29.3805H29.3782H29.3759H29.3736H29.3713H29.369H29.3667H29.3644H29.3621H29.3598H29.3576H29.3553H29.353H29.3507H29.3484H29.3461H29.3438H29.3415H29.3392H29.3369H29.3346H29.3323H29.33H29.3277H29.3254H29.3232H29.3209H29.3186H29.3163H29.314H29.3117H29.3094H29.3071H29.3048H29.3025H29.3002H29.2979H29.2956H29.2933H29.291H29.2887H29.2864H29.2841H29.2818H29.2795H29.2772H29.2749H29.2726H29.2703H29.268H29.2658H29.2635H29.2612H29.2589H29.2566H29.2543H29.252H29.2497H29.2474H29.2451H29.2428H29.2405H29.2382H29.2359H29.2336H29.2313H29.229H29.2267H29.2244H29.2221H29.2198H29.2175H29.2152H29.2129H29.2106H29.2083H29.206H29.2037H29.2014H29.1991H29.1968H29.1945H29.1922H29.1899H29.1876H29.1853H29.183H29.1807H29.1784H29.1761H29.1738H29.1715H29.1692H29.1669H29.1646H29.1623H29.16H29.1577H29.1554H29.1531H29.1508H29.1485H29.1462H29.1438H29.1415H29.1392H29.1369H29.1346H29.1323H29.13H29.1277H29.1254H29.1231H29.1208H29.1185H29.1162H29.1139H29.1116H29.1093H29.107H29.1047H29.1024H29.1001H29.0978H29.0955H29.0932H29.0909H29.0886H29.0863H29.084H29.0817H29.0793H29.077H29.0747H29.0724H29.0701H29.0678H29.0655H29.0632H29.0609H29.0586H29.0563H29.054H29.0517H29.0494H29.0471H29.0448H29.0425H29.0402H29.0379H29.0356H29.0332H29.0309H29.0286H29.0263H29.024H29.0217H29.0194H29.0171H29.0148H29.0125H29.0102H29.0079H29.0056H29.0033H29.001H28.9987H28.9964H28.994H28.9917H28.9894H28.9871H28.9848H28.9825H28.9802H28.9779H28.9756H28.9733H28.971H28.9687H28.9664H28.9641H28.9618H28.9594H28.9571H28.9548H28.9525H28.9502H28.9479H28.9456H28.9433H28.941H28.9387H28.9364H28.9341H28.9318H28.9295H28.9271H28.9248H28.9225H28.9202H28.9179H28.9156H28.9133H28.911H28.9087H28.9064H28.9041H28.9018H28.8995H28.8971H28.8948H28.8925H28.8902H28.8879H28.8856H28.8833H28.881H28.8787H28.8764H28.8741H28.8718H28.8695H28.8671H28.8648H28.8625H28.8602H28.8579H28.8556H28.8533H28.851H28.8487H28.8464H28.8441H28.8418H28.8395H28.8372H28.8348H28.8325H28.8302H28.8279H28.8256H28.8233H28.821H28.8187H28.8164H28.8141H28.8118H28.8095H28.8072H28.8048H28.8025H28.8002H28.7979H28.7956H28.7933H28.791H28.7887H28.7864H28.7841H28.7818H28.7795H28.7772H28.7748H28.7725H28.7702H28.7679H28.7656H28.7633H28.761H28.7587H28.7564H28.7541H28.7518H28.7495H28.7472H28.7449H28.7425H28.7402H28.7379H28.7356H28.7333H28.731H28.7287H28.7264H28.7241H28.7218H28.7195H28.7172H28.7149H28.7126H28.7103H28.7079H28.7056H28.7033H28.701H28.6987H28.6964H28.6941H28.6918H28.6895H28.6872H28.6849H28.6826H28.6803H28.678H28.6757H28.6734H28.671H28.6687H28.6664H28.6641H28.6618H28.6595H28.6572H28.6549H28.6526H28.6503H28.648H28.6457H28.6434H28.6411H28.6388H28.6365H28.6342H28.6319H28.6295H28.6272H28.6249H28.6226H28.6203H28.618H28.6157H28.6134H28.6111H28.6088H28.6065H28.6042H28.6019H28.5996H28.5973H28.595H28.5927H28.5904H28.5881H28.5858H28.5835H28.5812H28.5789H28.5766H28.5742H28.5719H28.5696H28.5673H28.565H28.5627H28.5604H28.5581H28.5558H28.5535H28.5512H28.5489H28.5466H28.5443H28.542H28.5397H28.5374H28.5351H28.5328H28.5305H28.5282H28.5259H28.5236H28.5213H28.519H28.5167H28.5144H28.5121H28.5098H28.5075H28.5052H28.5029H28.5006H28.4983H28.496H28.4937H28.4914H28.4891H28.4868H28.4845H28.4822H28.4799H28.4776H28.4753H28.473H28.4707H28.4684H28.4661H28.4638H28.4615H28.4592H28.4569H28.4546H28.4523H28.45H28.4477H28.4454H28.4431H28.4408H28.4385H28.4362H28.4339H28.4316H28.4293H28.427H28.4247H28.4224H28.4201H28.4178H28.4155H28.4132H28.4109H28.4086H28.4063H28.404H28.4017H28.3995H28.3972H28.3949H28.3926H28.3903H28.388H28.3857H28.3834H28.3811H28.3788H28.3765H28.3742H28.3719H28.3696H28.3673H28.365H28.3627H28.3604H28.3581H28.3558H28.3536H28.3513H28.349H28.3467H28.3444H28.3421H28.3398H28.3375H28.3352H28.3329H28.3306H28.3283H28.326H28.3238H28.3215H28.3192H28.3169H28.3146H28.3123H28.31H28.3077H28.3054H28.3031H28.3008H28.2986H28.2963H28.294H28.2917H28.2894H28.2871H28.2848H28.2825H28.2802H28.2779H28.2757H28.2734H28.2711H28.2688H28.2665H28.2642H28.2619H28.2596H28.2574H28.2551H28.2528H28.2505H28.2482H28.2459H28.2436H28.2413H28.239H28.2368H28.2345H28.2322H28.2299H28.2276H28.2253H28.223H28.2207H28.2184H28.2162H28.2139H28.2116H28.2093H28.207H28.2047H28.2024H28.2001H28.1978H28.1955H28.1932H28.191H28.1887H28.1864H28.1841H28.1818H28.1795H28.1772H28.1749H28.1726H28.1703H28.168H28.1657H28.1634H28.1612H28.1589H28.1566H28.1543H28.152H28.1497H28.1474H28.1451H28.1428H28.1405H28.1382H28.1359H28.1336H28.1313H28.129H28.1267H28.1244H28.1221H28.1199H28.1176H28.1153H28.113H28.1107H28.1084H28.1061H28.1038H28.1015H28.0992H28.0969H28.0946H28.0923H28.09H28.0877H28.0854H28.0831H28.0808H28.0785H28.0762H28.0739H28.0716H28.0693H28.067H28.0647H28.0624H28.0601H28.0578H28.0555H28.0532H28.0509H28.0486H28.0463H28.044H28.0417H28.0394H28.0371H28.0348H28.0325H28.0302H28.0279H28.0256H28.0233H28.021H28.0187H28.0164H28.0141H28.0118H28.0095H28.0072H28.0049H28.0026H28.0003H27.998H27.9957H27.9934H27.9911H27.9888H27.9865H27.9842H27.9819H27.9796H27.9773H27.975H27.9727H27.9704H27.9681H27.9658H27.9635H27.9612H27.9589H27.9566H27.9543H27.952H27.9497H27.9474H27.9451H27.9428H27.9405H27.9382H27.9359H27.9336H27.9312H27.9289H27.9266H27.9243H27.922H27.9197H27.9174H27.9151H27.9128H27.9105H27.9082H27.9059H27.9036H27.9013H27.899H27.8967H27.8944H27.8921H27.8898H27.8875H27.8852H27.8829H27.8806H27.8782H27.8759H27.8736H27.8713H27.869H27.8667H27.8644H27.8621H27.8598H27.8575H27.8552H27.8529H27.8506H27.8483H27.846H27.8437H27.8414H27.8391H27.8367H27.8344H27.8321H27.8298H27.8275H27.8252H27.8229H27.8206H27.8183H27.816H27.8137H27.8114H27.8091H27.8068H27.8045H27.8022H27.7998H27.7975H27.7952H27.7929H27.7906H27.7883H27.786H27.7837H27.7814H27.7791H27.7768H27.7745H27.7722H27.7699H27.7675H27.7652H27.7629H27.7606H27.7583H27.756H27.7537H27.7514H27.7491H27.7468H27.7445H27.7422H27.7399H27.7376H27.7352H27.7329H27.7306H27.7283H27.726H27.7237H27.7214H27.7191H27.7168H27.7145H27.7122H27.7099H27.7076H27.7053H27.7029H27.7006H27.6983H27.696H27.6937H27.6914H27.6891H27.6868H27.6845H27.6822H27.6799H27.6776H27.6753H27.6729H27.6706H27.6683H27.666H27.6637H27.6614H27.6591H27.6568H27.6545H27.6522H27.6499H27.6476H27.6453H27.6429H27.6406H27.6383H27.636H27.6337H27.6314H27.6291H27.6268H27.6245H27.6222H27.6199H27.6176H27.6153H27.6129H27.6106H27.6083H27.606H27.6037H27.6014H27.5991H27.5968H27.5945H27.5922H27.5899H27.5876H27.5853H27.583H27.5806H27.5783H27.576H27.5737H27.5714H27.5691H27.5668H27.5645H27.5622H27.5599H27.5576H27.5553H27.553H27.5507H27.5483H27.546H27.5437H27.5414H27.5391H27.5368H27.5345H27.5322H27.5299H27.5276H27.5253H27.523H27.5207H27.5184H27.5161H27.5137H27.5114H27.5091H27.5068H27.5045H27.5022H27.4999H27.4976H27.4953H27.493H27.4907H27.4884H27.4861H27.4838H27.4815H27.4792H27.4769H27.4745H27.4722H27.4699H27.4676H27.4653H27.463H27.4607H27.4584H27.4561H27.4538H27.4515H27.4492H27.4469H27.4446H27.4423H27.44H27.4377H27.4354H27.4331H27.4308H27.4284H27.4261H27.4238H27.4215H27.4192H27.4169H27.4146H27.4123H27.41H27.4077H27.4054H27.4031H27.4008H27.3985H27.3962H27.3939H27.3916H27.3893H27.387H27.3847H27.3824H27.3801H27.3778H27.3755H27.3732H27.3709H27.3686H27.3663H27.364H27.3617H27.3594H27.357H27.3547H27.3524H27.3501H27.3478H27.3455H27.3432H27.3409H27.3386H27.3363H27.334H27.3317H27.3294H27.3271H27.3248H27.3225H27.3202H27.3179H27.3156H27.3133H27.311H27.3087H27.3064H27.3041H27.3018H27.2995H27.2972H27.2949H27.2926H27.2903H27.288H27.2857H27.2834H27.2811H27.2788H27.2765H27.2742H27.2719H27.2696H27.2673H27.265H27.2627H27.2604H27.2582H27.2559H27.2536H27.2513H27.249H27.2467H27.2444H27.2421H27.2398H27.2375H27.2352H27.2329H27.2306H27.2283H27.226H27.2237H27.2214H27.2191H27.2168H27.2145H27.2122H27.2099H27.2076H27.2053H27.203H27.2007H27.1984H27.1962H27.1939H27.1916H27.1893H27.187H27.1847H27.1824H27.1801H27.1778H27.1755H27.1732H27.1709H27.1686H27.1663H27.164H27.1617H27.1595H27.1572H27.1549H27.1526H27.1503H27.148H27.1457H27.1434H27.1411H27.1388H27.1365H27.1342H27.132H27.1297H27.1274H27.1251H27.1228H27.1205H27.1182H27.1159H27.1136H27.1113H27.1091H27.1068H27.1045H27.1022H27.0999H27.0976H27.0965C9.43554 82.3247 -2.34137 64.9996 3.22015 48.7564L26.0386 2.88461Z" stroke="white" stroke-width="1.73962"/>
</svg>
